<svg xmlns="http://www.w3.org/2000/svg" width="160" height="160" viewBox="0 0 160 160">
  <rect width="160" height="160" rx="12" fill="#f0f0f0"/>
  <!-- QR corner markers -->
  <rect x="12" y="12" width="44" height="44" rx="4" fill="none" stroke="#333" stroke-width="4"/>
  <rect x="18" y="18" width="32" height="32" rx="2" fill="#333"/>
  <rect x="104" y="12" width="44" height="44" rx="4" fill="none" stroke="#333" stroke-width="4"/>
  <rect x="110" y="18" width="32" height="32" rx="2" fill="#333"/>
  <rect x="12" y="104" width="44" height="44" rx="4" fill="none" stroke="#333" stroke-width="4"/>
  <rect x="18" y="110" width="32" height="32" rx="2" fill="#333"/>
  <!-- Placeholder dots -->
  <rect x="68" y="12" width="8" height="8" fill="#333"/>
  <rect x="80" y="12" width="8" height="8" fill="#333"/>
  <rect x="68" y="24" width="8" height="8" fill="#333"/>
  <rect x="80" y="28" width="8" height="8" fill="#333"/>
  <rect x="92" y="20" width="8" height="8" fill="#333"/>
  <rect x="12" y="68" width="8" height="8" fill="#333"/>
  <rect x="24" y="80" width="8" height="8" fill="#333"/>
  <rect x="36" y="68" width="8" height="8" fill="#333"/>
  <rect x="48" y="80" width="8" height="8" fill="#333"/>
  <rect x="60" y="68" width="8" height="8" fill="#333"/>
  <rect x="72" y="60" width="8" height="8" fill="#333"/>
  <rect x="84" y="68" width="8" height="8" fill="#333"/>
  <rect x="96" y="60" width="8" height="8" fill="#333"/>
  <rect x="108" y="68" width="8" height="8" fill="#333"/>
  <rect x="120" y="60" width="8" height="8" fill="#333"/>
  <rect x="132" y="68" width="8" height="8" fill="#333"/>
  <rect x="60" y="80" width="8" height="8" fill="#333"/>
  <rect x="72" y="88" width="8" height="8" fill="#333"/>
  <rect x="84" y="80" width="8" height="8" fill="#333"/>
  <rect x="96" y="88" width="8" height="8" fill="#333"/>
  <rect x="108" y="80" width="8" height="8" fill="#333"/>
  <rect x="120" y="88" width="8" height="8" fill="#333"/>
  <rect x="132" y="80" width="8" height="8" fill="#333"/>
  <rect x="60" y="96" width="8" height="8" fill="#333"/>
  <rect x="72" y="104" width="8" height="8" fill="#333"/>
  <rect x="84" y="96" width="8" height="8" fill="#333"/>
  <rect x="96" y="104" width="8" height="8" fill="#333"/>
  <rect x="108" y="96" width="8" height="8" fill="#333"/>
  <rect x="120" y="104" width="8" height="8" fill="#333"/>
  <rect x="132" y="96" width="8" height="8" fill="#333"/>
  <rect x="60" y="112" width="8" height="8" fill="#333"/>
  <rect x="72" y="120" width="8" height="8" fill="#333"/>
  <rect x="84" y="112" width="8" height="8" fill="#333"/>
  <rect x="96" y="120" width="8" height="8" fill="#333"/>
  <rect x="108" y="112" width="8" height="8" fill="#333"/>
  <rect x="120" y="120" width="8" height="8" fill="#333"/>
  <rect x="132" y="112" width="8" height="8" fill="#333"/>
</svg>
